# xmcd
#
# Track frame offsets:
#	150
#	12910
#	30565
#	48667
#	64680
#	80285
#	94935
#	105615
#	119430
#	132200
#	150900
#	168467
#	180825
#	192135
#
# Disc length: 2770
#
# Revision: 1
# Processed by: cddbd v1.5.1PL0 Copyright (c) Steve Scherf et al.
# Submitted via: VisiTrax 2.9.5.180 - For more info visit www.synapsa.com
# Normalized: r0:DSETVAR1
#
DISCID=a60ad00e
DTITLE=Various Artist - CDX 103 February 1995
DYEAR=1995
DGENRE=
TTITLE0=Pam Tillis - Blown away
TTITLE1=4 Runner - Cain's in blood
TTITLE2=Western Flyer - Cherokee highway
TTITLE3=John Bunzow - Easy as one, two three
TTITLE4=Doug Stone - Faith in me, faith in you
TTITLE5=Carlene Carter - Hurricane
TTITLE6=Noah Gordon - I need a break
TTITLE7=Brooks and Dunn - Little miss honky tonk
TTITLE8=Tim McGraw - Refried dreams
TTITLE9=Shenandoah - Alison Krauss - Somewhere in the vicinity of the heart
TTITLE10=Martina McBride - Where I used to have a heart
TTITLE11=Radney Foster - Willin to walk
TTITLE12=Jeff Carson - Yeah buddy
TTITLE13=Perfect Stranger - You have the right to remain silent
EXTD=
EXTT0=
EXTT1=
EXTT2=
EXTT3=
EXTT4=
EXTT5=
EXTT6=
EXTT7=
EXTT8=
EXTT9=
EXTT10=
EXTT11=
EXTT12=
EXTT13=
PLAYORDER=
